<?xml version="1.0" encoding="UTF-8"?>
<svg width="20px" height="20px" viewBox="0 0 20 20" version="1.1" xmlns="http://www.w3.org/2000/svg" xmlns:xlink="http://www.w3.org/1999/xlink">
    <!-- Generator: sketchtool 63.1 (101010) - https://sketch.com -->
    <title>FEFA5D40-84BD-4669-9DDF-D92AC925F514</title>
    <desc>Created with sketchtool.</desc>
    <defs>
        <linearGradient x1="0%" y1="50%" x2="100%" y2="50%" id="linearGradient-1">
            <stop stop-color="#00A984" offset="0%"></stop>
            <stop stop-color="#027BC2" offset="100%"></stop>
        </linearGradient>
        <path d="M14.9288036,0.070525494 C16.1181128,0.124805094 16.7639965,0.323523626 17.1938754,0.490526612 C17.7632059,0.711809198 18.1696009,0.976186198 18.5964293,1.40301464 C19.0232577,1.82984308 19.2876347,2.23623799 19.5088689,2.80556854 C19.6759203,3.23544748 19.8746388,3.88133115 19.9289184,5.07059189 C19.9797795,6.18538159 19.9958715,6.62377461 19.9992586,8.84109064 L19.9992586,11.1583531 C19.9958715,13.3756684 19.9797795,13.8140559 19.9289184,14.9288036 C19.8746388,16.1181128 19.6759203,16.7639964 19.5088689,17.1938754 C19.2876347,17.7632059 19.0232577,18.1696008 18.5964293,18.5964293 C18.1696009,19.0232577 17.7632059,19.2876347 17.1938754,19.5088689 C16.7639965,19.6759203 16.1181128,19.8746389 14.9288036,19.9289184 C13.8142237,19.9797795 13.3758587,19.9958715 11.1584203,19.9992586 L8.84102361,19.9992586 C6.62358523,19.9958715 6.18522018,19.9797795 5.07064031,19.9289184 C3.88133116,19.8746389 3.23544748,19.6759203 2.80561696,19.5088689 C2.23623799,19.2876347 1.82984308,19.0232577 1.40301464,18.5964293 C0.976186198,18.1696008 0.711809197,17.7632059 0.490575033,17.1938754 C0.323523635,16.7639964 0.124805094,16.1181128 0.070525494,14.928852 C0.0216205842,13.8569389 0.00486164745,13.4103924 0.000633804903,11.4064425 L0.000633804903,8.59300164 C0.00486164745,6.58905283 0.0216205842,6.14251313 0.070525494,5.07064031 C0.124805094,3.88133115 0.323523635,3.23544748 0.490575033,2.80556854 C0.711809197,2.23623799 0.976186198,1.82984308 1.40301464,1.40301464 C1.82984308,0.976186198 2.23623799,0.711809198 2.80561696,0.490526612 C3.23544748,0.323523626 3.88133116,0.124805094 5.07059189,0.070525494 C6.14250506,0.0216205842 6.58905148,0.00486164745 8.59300142,0.000633804903 L11.4064423,0.000633804903 C13.4103911,0.00486164745 13.8569308,0.0216205842 14.9288036,0.070525494 Z M16.5111435,2.0245427 C15.7027116,2.0245427 15.0473375,2.67986841 15.0473375,3.48830036 C15.0473375,4.29673231 15.7027116,4.95210644 16.5111435,4.95210644 C17.3195755,4.95210644 17.9749013,4.29673231 17.9749013,3.48830036 C17.9749013,2.67986841 17.3195755,2.0245427 16.5111435,2.0245427 Z M9.99972196,3.73577855 C6.54025687,3.73577855 3.73577854,6.54025687 3.73577854,9.99972196 C3.73577854,13.459187 6.54025687,16.2636654 9.99972196,16.2636654 C13.459187,16.2636654 16.2636654,13.459187 16.2636654,9.99972196 C16.2636654,6.54025687 13.459187,3.73577855 9.99972196,3.73577855 Z M9.99972196,14.0658016 C7.75411534,14.0658016 5.93364238,12.2453286 5.93364238,9.99972196 C5.93364238,7.75411534 7.75411534,5.93364238 9.99972196,5.93364238 C12.2453286,5.93364238 14.0658016,7.75411534 14.0658016,9.99972196 C14.0658016,12.2453286 12.2453286,14.0658016 9.99972196,14.0658016 Z" id="path-2"></path>
    </defs>
    <g id="HOME-PAGE" stroke="none" stroke-width="1" fill="none" fill-rule="evenodd">
        <g transform="translate(-685.000000, -2630.000000)">
            <rect fill="#FFFFFF" x="0" y="0" width="1440" height="2837"></rect>
            <g id="FOOTER" transform="translate(85.000000, 2432.000000)">
                <g>
                    <rect id="Rectangle" fill="url(#linearGradient-1)" x="0" y="0" width="1271" height="319"></rect>
                    <g id="PICTO/RESEAU/FACEBOOK-Copy-3" transform="translate(600.000000, 198.000000)">
                        <mask id="mask-3" fill="white">
                            <use xlink:href="#path-2"></use>
                        </mask>
                        <use id="Shape" fill="#0A0A08" fill-rule="nonzero" xlink:href="#path-2"></use>
                        <g id="colors/empty" mask="url(#mask-3)" fill="#FFFFFF">
                            <rect id="Rectangle" x="0" y="0" width="20" height="20"></rect>
                        </g>
                    </g>
                </g>
            </g>
        </g>
    </g>
</svg>