<?xml version="1.0" encoding="UTF-8"?>
<svg width="20px" height="20px" viewBox="0 0 20 20" version="1.1" xmlns="http://www.w3.org/2000/svg" xmlns:xlink="http://www.w3.org/1999/xlink">
    <!-- Generator: sketchtool 63.1 (101010) - https://sketch.com -->
    <title>A43B188C-C139-4C38-B24E-873641B689DC</title>
    <desc>Created with sketchtool.</desc>
    <defs>
        <linearGradient x1="0%" y1="50%" x2="100%" y2="50%" id="linearGradient-1">
            <stop stop-color="#00A984" offset="0%"></stop>
            <stop stop-color="#027BC2" offset="100%"></stop>
        </linearGradient>
        <path d="M20,2.30206539 C19.2746391,2.62553714 18.6633399,2.63623042 18.0146142,2.3163231 C18.8513634,1.8155211 18.889681,1.46442504 19.1917662,0.517178558 C18.4093744,0.981445177 17.5423276,1.31917464 16.6200321,1.50185152 C15.8821957,0.715004258 14.8289075,0.222222222 13.6651221,0.222222222 C11.4284441,0.222222222 9.61593299,2.03651557 9.61593299,4.27141132 C9.61593299,4.58953643 9.65157726,4.89875047 9.72019248,5.19459791 C6.35448227,5.02617874 3.37105685,3.41327551 1.37408662,0.962731935 C1.02566387,1.56155567 0.825164855,2.25751005 0.825164855,2.99980198 C0.825164855,4.40507733 1.54072358,5.64371572 2.62698271,6.36996772 C1.96310818,6.34858116 1.33933345,6.16679538 0.793085012,5.86381909 C0.792193905,5.88075011 0.792193905,5.89679004 0.792193905,5.91461217 C0.792193905,7.87682924 2.18855819,9.51290125 4.04116913,9.88538387 C3.44769203,10.0466742 2.82213509,10.0716252 2.21172696,9.9548902 C2.72767778,11.5633379 4.22295491,12.7342522 5.99447514,12.7672231 C4.26216361,14.1252698 2.11370522,14.6911226 0,14.4433949 C1.79201568,15.5920315 3.91997861,16.2621438 6.20655855,16.2621438 C13.6553199,16.2621438 17.7267867,10.0921206 17.7267867,4.74102457 C17.7267867,4.56458544 17.7241133,4.39171073 17.7160934,4.2170538 C18.5065051,3.64674548 19.457316,3.11475475 20,2.30206539" id="path-2"></path>
    </defs>
    <g id="HOME-PAGE" stroke="none" stroke-width="1" fill="none" fill-rule="evenodd">
        <g transform="translate(-634.000000, -2669.000000)">
            <rect fill="#FFFFFF" x="0" y="0" width="1440" height="2837"></rect>
            <g id="FOOTER" transform="translate(85.000000, 2432.000000)">
                <g>
                    <rect id="Rectangle" fill="url(#linearGradient-1)" x="0" y="0" width="1271" height="319"></rect>
                    <g id="PICTO/RESEAU/FACEBOOK-Copy-4" transform="translate(549.000000, 239.000000)">
                        <mask id="mask-3" fill="white">
                            <use xlink:href="#path-2"></use>
                        </mask>
                        <use id="Fill-264" fill="#000000" xlink:href="#path-2"></use>
                        <g id="colors/empty" mask="url(#mask-3)" fill="#FFFFFF">
                            <g transform="translate(0.000000, -2.000000)" id="Rectangle">
                                <rect x="0" y="0" width="20" height="20"></rect>
                            </g>
                        </g>
                    </g>
                </g>
            </g>
        </g>
    </g>
</svg>