<?xml version="1.0" encoding="UTF-8"?>
<svg width="20px" height="20px" viewBox="0 0 20 20" version="1.1" xmlns="http://www.w3.org/2000/svg" xmlns:xlink="http://www.w3.org/1999/xlink">
    <!-- Generator: sketchtool 63.1 (101010) - https://sketch.com -->
    <title>39508169-1E6A-4B24-8037-BDDE002DE977</title>
    <desc>Created with sketchtool.</desc>
    <defs>
        <linearGradient x1="0%" y1="50%" x2="100%" y2="50%" id="linearGradient-1">
            <stop stop-color="#00A984" offset="0%"></stop>
            <stop stop-color="#027BC2" offset="100%"></stop>
        </linearGradient>
        <path d="M13.7816667,7.88777778 L8.14083333,11.4969444 C8.0725,11.5402778 7.995,11.5619444 7.91666667,11.5619444 C7.8475,11.5619444 7.77916667,11.5452778 7.71666667,11.5111111 C7.58333333,11.4377778 7.5,11.2977778 7.5,11.1452778 L7.5,3.92694444 C7.5,3.77444444 7.58333333,3.63444444 7.71666667,3.56194444 C7.85083333,3.48861111 8.01333333,3.49444444 8.14083333,3.57611111 L13.7816667,7.18527778 C13.9016667,7.26194444 13.9733333,7.39444444 13.9733333,7.53694444 C13.9733333,7.67861111 13.9016667,7.81111111 13.7816667,7.88777778 M16.7183333,0.777777778 L3.28083333,0.777777778 C1.4725,0.777777778 0,2.25111111 0,4.06111111 L0,11.6619444 C0,13.4719444 1.4725,14.9444444 3.28083333,14.9444444 L16.7183333,14.9444444 C18.5275,14.9444444 20,13.4719444 20,11.6619444 L20,4.06111111 C20,2.25111111 18.5275,0.777777778 16.7183333,0.777777778" id="path-2"></path>
    </defs>
    <g id="HOME-PAGE" stroke="none" stroke-width="1" fill="none" fill-rule="evenodd">
        <g transform="translate(-685.000000, -2669.000000)">
            <rect fill="#FFFFFF" x="0" y="0" width="1440" height="2837"></rect>
            <g id="FOOTER" transform="translate(85.000000, 2432.000000)">
                <g>
                    <rect id="Rectangle" fill="url(#linearGradient-1)" x="0" y="0" width="1271" height="319"></rect>
                    <g id="PICTO/RESEAU/FACEBOOK-Copy-5" transform="translate(600.000000, 239.000000)">
                        <mask id="mask-3" fill="white">
                            <use xlink:href="#path-2"></use>
                        </mask>
                        <use id="Fill-121" fill="#000000" xlink:href="#path-2"></use>
                        <g id="colors/empty" mask="url(#mask-3)" fill="#FFFFFF">
                            <g transform="translate(0.000000, -2.000000)" id="Rectangle">
                                <rect x="0" y="0" width="20" height="20"></rect>
                            </g>
                        </g>
                    </g>
                </g>
            </g>
        </g>
    </g>
</svg>